TITLE ""
FILE "2Q_t_0036-0051.mp3" MP3
  TRACK 01 AUDIO
    TITLE "2Q_t_0036-0051_01"
    INDEX 01 00:00:00
  TRACK 02 AUDIO
    TITLE "2Q_t_0036-0051_02"
    INDEX 01 00:01:22
  TRACK 03 AUDIO
    TITLE "2Q_t_0036-0051_03"
    INDEX 01 00:01:65
  TRACK 04 AUDIO
    TITLE "2Q_t_0036-0051_04"
    INDEX 01 00:07:18
  TRACK 05 AUDIO
    TITLE "2Q_t_0036-0051_05"
    INDEX 01 00:07:63
  TRACK 06 AUDIO
    TITLE "2Q_t_0036-0051_06"
    INDEX 01 00:08:65
  TRACK 07 AUDIO
    TITLE "2Q_t_0036-0051_07"
    INDEX 01 00:09:37
  TRACK 08 AUDIO
    TITLE "2Q_t_0036-0051_08"
    INDEX 01 00:10:58
  TRACK 09 AUDIO
    TITLE "2Q_t_0036-0051_09"
    INDEX 01 00:11:28
  TRACK 10 AUDIO
    TITLE "2Q_t_0036-0051_10"
    INDEX 01 00:12:23
  TRACK 11 AUDIO
    TITLE "2Q_t_0036-0051_11"
    INDEX 01 00:12:68
  TRACK 12 AUDIO
    TITLE "2Q_t_0036-0051_12"
    INDEX 01 00:14:24
  TRACK 13 AUDIO
    TITLE "2Q_t_0036-0051_13"
    INDEX 01 00:14:67
  TRACK 14 AUDIO
    TITLE "2Q_t_0036-0051_14"
    INDEX 01 00:16:07
  TRACK 15 AUDIO
    TITLE "2Q_t_0036-0051_15"
    INDEX 01 00:16:52
  TRACK 16 AUDIO
    TITLE "2Q_t_0036-0051_16"
    INDEX 01 00:19:41
  TRACK 17 AUDIO
    TITLE "2Q_t_0036-0051_17"
    INDEX 01 00:20:09
  TRACK 18 AUDIO
    TITLE "2Q_t_0036-0051_18"
    INDEX 01 00:21:18
  TRACK 19 AUDIO
    TITLE "2Q_t_0036-0051_19"
    INDEX 01 00:21:67
  TRACK 20 AUDIO
    TITLE "2Q_t_0036-0051_20"
    INDEX 01 00:23:31
  TRACK 21 AUDIO
    TITLE "2Q_t_0036-0051_21"
    INDEX 01 00:23:74
  TRACK 22 AUDIO
    TITLE "2Q_t_0036-0051_22"
    INDEX 01 00:25:10
  TRACK 23 AUDIO
    TITLE "2Q_t_0036-0051_23"
    INDEX 01 00:25:57
  TRACK 24 AUDIO
    TITLE "2Q_t_0036-0051_24"
    INDEX 01 00:28:05
  TRACK 25 AUDIO
    TITLE "2Q_t_0036-0051_25"
    INDEX 01 00:28:50
  TRACK 26 AUDIO
    TITLE "2Q_t_0036-0051_26"
    INDEX 01 00:29:47
  TRACK 27 AUDIO
    TITLE "2Q_t_0036-0051_27"
    INDEX 01 00:30:21
  TRACK 28 AUDIO
    TITLE "2Q_t_0036-0051_28"
    INDEX 01 00:31:52
  TRACK 29 AUDIO
    TITLE "2Q_t_0036-0051_29"
    INDEX 01 00:32:20
  TRACK 30 AUDIO
    TITLE "2Q_t_0036-0051_30"
    INDEX 01 00:33:27
  TRACK 31 AUDIO
    TITLE "2Q_t_0036-0051_31"
    INDEX 01 00:33:74
  TRACK 32 AUDIO
    TITLE "2Q_t_0036-0051_32"
    INDEX 01 00:38:03
  TRACK 33 AUDIO
    TITLE "2Q_t_0036-0051_33"
    INDEX 01 00:38:48
  TRACK 34 AUDIO
    TITLE "2Q_t_0036-0051_34"
    INDEX 01 00:39:51
  TRACK 35 AUDIO
    TITLE "2Q_t_0036-0051_35"
    INDEX 01 00:40:22
  TRACK 36 AUDIO
    TITLE "2Q_t_0036-0051_36"
    INDEX 01 00:41:21
  TRACK 37 AUDIO
    TITLE "2Q_t_0036-0051_37"
    INDEX 01 00:41:68
  TRACK 38 AUDIO
    TITLE "2Q_t_0036-0051_38"
    INDEX 01 00:44:10
  TRACK 39 AUDIO
    TITLE "2Q_t_0036-0051_39"
    INDEX 01 00:44:53
  TRACK 40 AUDIO
    TITLE "2Q_t_0036-0051_40"
    INDEX 01 00:45:62
  TRACK 41 AUDIO
    TITLE "2Q_t_0036-0051_41"
    INDEX 01 00:46:36
  TRACK 42 AUDIO
    TITLE "2Q_t_0036-0051_42"
    INDEX 01 00:48:27
  TRACK 43 AUDIO
    TITLE "2Q_t_0036-0051_43"
    INDEX 01 00:48:72
  TRACK 44 AUDIO
    TITLE "2Q_t_0036-0051_44"
    INDEX 01 00:50:18
  TRACK 45 AUDIO
    TITLE "2Q_t_0036-0051_45"
    INDEX 01 00:50:63
  TRACK 46 AUDIO
    TITLE "2Q_t_0036-0051_46"
    INDEX 01 00:51:66
  TRACK 47 AUDIO
    TITLE "2Q_t_0036-0051_47"
    INDEX 01 00:52:36
  TRACK 48 AUDIO
    TITLE "2Q_t_0036-0051_48"
    INDEX 01 00:53:42
  TRACK 49 AUDIO
    TITLE "2Q_t_0036-0051_49"
    INDEX 01 00:54:16
  TRACK 50 AUDIO
    TITLE "2Q_t_0036-0051_50"
    INDEX 01 00:57:22
  TRACK 51 AUDIO
    TITLE "2Q_t_0036-0051_51"
    INDEX 01 00:57:67
  TRACK 52 AUDIO
    TITLE "2Q_t_0036-0051_52"
    INDEX 01 00:59:11
  TRACK 53 AUDIO
    TITLE "2Q_t_0036-0051_53"
    INDEX 01 00:59:56
  TRACK 54 AUDIO
    TITLE "2Q_t_0036-0051_54"
    INDEX 01 01:01:69
  TRACK 55 AUDIO
    TITLE "2Q_t_0036-0051_55"
    INDEX 01 01:02:39
  TRACK 56 AUDIO
    TITLE "2Q_t_0036-0051_56"
    INDEX 01 01:03:64
  TRACK 57 AUDIO
    TITLE "2Q_t_0036-0051_57"
    INDEX 01 01:04:36
  TRACK 58 AUDIO
    TITLE "2Q_t_0036-0051_58"
    INDEX 01 01:05:57
  TRACK 59 AUDIO
    TITLE "2Q_t_0036-0051_59"
    INDEX 01 01:06:25
  TRACK 60 AUDIO
    TITLE "2Q_t_0036-0051_60"
    INDEX 01 01:07:40
  TRACK 61 AUDIO
    TITLE "2Q_t_0036-0051_61"
    INDEX 01 01:08:12
  TRACK 62 AUDIO
    TITLE "2Q_t_0036-0051_62"
    INDEX 01 01:09:15
  TRACK 63 AUDIO
    TITLE "2Q_t_0036-0051_63"
    INDEX 01 01:09:60
  TRACK 64 AUDIO
    TITLE "2Q_t_0036-0051_64"
    INDEX 01 01:10:68
  TRACK 65 AUDIO
    TITLE "2Q_t_0036-0051_65"
    INDEX 01 01:11:40
  TRACK 66 AUDIO
    TITLE "2Q_t_0036-0051_66"
    INDEX 01 01:14:48
